<svg width="24" height="24" viewBox="0 0 24 24" fill="none" xmlns="http://www.w3.org/2000/svg">
<mask id="mask0_22_459" style="mask-type:alpha" maskUnits="userSpaceOnUse" x="0" y="0" width="24" height="24">
<rect width="24" height="24" fill="#D9D9D9"/>
</mask>
<g mask="url(#mask0_22_459)">
<path d="M10 22C8.61667 22 7.43767 21.5127 6.463 20.538C5.48767 19.5627 5 18.3833 5 17C5 15.6167 5.48767 14.4373 6.463 13.462C7.43767 12.4873 8.61667 12 10 12V14C9.16667 14 8.45833 14.2917 7.875 14.875C7.29167 15.4583 7 16.1667 7 17C7 17.8333 7.29167 18.5417 7.875 19.125C8.45833 19.7083 9.16667 20 10 20C10.8333 20 11.5417 19.7083 12.125 19.125C12.7083 18.5417 13 17.8333 13 17H15C15 18.3833 14.5127 19.5627 13.538 20.538C12.5627 21.5127 11.3833 22 10 22ZM18 21V16H13C12.2667 16 11.7 15.6873 11.3 15.062C10.9 14.4373 10.85 13.7833 11.15 13.1L13 9H10.725L10.125 10.55L8.2 10L8.9 8.2C9.05 7.81667 9.29567 7.52067 9.637 7.312C9.979 7.104 10.35 7 10.75 7H15.95C16.7 7 17.271 7.304 17.663 7.912C18.0543 8.52067 18.1 9.16667 17.8 9.85L16.15 13.5H18C18.55 13.5 19.021 13.6957 19.413 14.087C19.8043 14.479 20 14.95 20 15.5V21H18ZM18 6.5C17.45 6.5 16.979 6.304 16.587 5.912C16.1957 5.52067 16 5.05 16 4.5C16 3.95 16.1957 3.479 16.587 3.087C16.979 2.69567 17.45 2.5 18 2.5C18.55 2.5 19.021 2.69567 19.413 3.087C19.8043 3.479 20 3.95 20 4.5C20 5.05 19.8043 5.52067 19.413 5.912C19.021 6.304 18.55 6.5 18 6.5Z" fill="#1C1B1F"/>
</g>
</svg>
