<svg width="25" height="25" viewBox="0 0 25 25" fill="none" xmlns="http://www.w3.org/2000/svg">
<mask id="mask0_46_37" style="mask-type:alpha" maskUnits="userSpaceOnUse" x="0" y="0" width="25" height="25">
<rect x="0.433472" y="0.537659" width="24" height="24" fill="#D9D9D9"/>
</mask>
<g mask="url(#mask0_46_37)">
<path d="M12.4335 6.53766C11.8835 6.53766 11.4128 6.34166 11.0215 5.94966C10.6295 5.55833 10.4335 5.08766 10.4335 4.53766C10.4335 3.98766 10.6295 3.51666 11.0215 3.12466C11.4128 2.73333 11.8835 2.53766 12.4335 2.53766C12.9835 2.53766 13.4545 2.73333 13.8465 3.12466C14.2378 3.51666 14.4335 3.98766 14.4335 4.53766C14.4335 5.08766 14.2378 5.55833 13.8465 5.94966C13.4545 6.34166 12.9835 6.53766 12.4335 6.53766ZM9.43347 22.5377V9.53766C8.43347 9.45433 7.4168 9.32933 6.38347 9.16266C5.35014 8.99599 4.36681 8.78766 3.43347 8.53766L3.93347 6.53766C5.23347 6.88766 6.61681 7.14166 8.08347 7.29966C9.55014 7.45833 11.0001 7.53766 12.4335 7.53766C13.8668 7.53766 15.3168 7.45833 16.7835 7.29966C18.2501 7.14166 19.6335 6.88766 20.9335 6.53766L21.4335 8.53766C20.5001 8.78766 19.5168 8.99599 18.4835 9.16266C17.4501 9.32933 16.4335 9.45433 15.4335 9.53766V22.5377H13.4335V16.5377H11.4335V22.5377H9.43347Z" fill="#1C1B1F"/>
</g>
</svg>
