<svg width="24" height="24" viewBox="0 0 24 24" fill="none" xmlns="http://www.w3.org/2000/svg">
<mask id="mask0_22_501" style="mask-type:alpha" maskUnits="userSpaceOnUse" x="0" y="0" width="24" height="24">
<rect width="24" height="24" fill="#D9D9D9"/>
</mask>
<g mask="url(#mask0_22_501)">
<path d="M10 19.35V13.65L11.4 9.65C11.4833 9.46667 11.604 9.31267 11.762 9.188C11.9207 9.06267 12.1167 9 12.35 9H19.65C19.8833 9 20.0833 9.06267 20.25 9.188C20.4167 9.31267 20.5333 9.46667 20.6 9.65L22 13.65V19.35C22 19.5333 21.9373 19.6873 21.812 19.812C21.6873 19.9373 21.5333 20 21.35 20H20.65C20.4667 20 20.3127 19.9373 20.188 19.812C20.0627 19.6873 20 19.5333 20 19.35V18.5H12V19.35C12 19.5333 11.9373 19.6873 11.812 19.812C11.6873 19.9373 11.5333 20 11.35 20H10.65C10.4667 20 10.3127 19.9373 10.188 19.812C10.0627 19.6873 10 19.5333 10 19.35ZM12 12.5H20L19.3 10.5H12.7L12 12.5ZM13 16.5C13.2833 16.5 13.521 16.404 13.713 16.212C13.9043 16.0207 14 15.7833 14 15.5C14 15.2167 13.9043 14.979 13.713 14.787C13.521 14.5957 13.2833 14.5 13 14.5C12.7167 14.5 12.4793 14.5957 12.288 14.787C12.096 14.979 12 15.2167 12 15.5C12 15.7833 12.096 16.0207 12.288 16.212C12.4793 16.404 12.7167 16.5 13 16.5ZM19 16.5C19.2833 16.5 19.5207 16.404 19.712 16.212C19.904 16.0207 20 15.7833 20 15.5C20 15.2167 19.904 14.979 19.712 14.787C19.5207 14.5957 19.2833 14.5 19 14.5C18.7167 14.5 18.4793 14.5957 18.288 14.787C18.096 14.979 18 15.2167 18 15.5C18 15.7833 18.096 16.0207 18.288 16.212C18.4793 16.404 18.7167 16.5 19 16.5ZM4 20V19L5 18C4.16667 18 3.45833 17.7083 2.875 17.125C2.29167 16.5417 2 15.8333 2 15V7C2 5.9 2.49167 5.125 3.475 4.675C4.45833 4.225 6.13333 4 8.5 4C10.9667 4 12.6667 4.21667 13.6 4.65C14.5333 5.08333 15 5.86667 15 7V8H13V7H4V13H9V20H4ZM5 16C5.28333 16 5.521 15.904 5.713 15.712C5.90433 15.5207 6 15.2833 6 15C6 14.7167 5.90433 14.479 5.713 14.287C5.521 14.0957 5.28333 14 5 14C4.71667 14 4.479 14.0957 4.287 14.287C4.09567 14.479 4 14.7167 4 15C4 15.2833 4.09567 15.5207 4.287 15.712C4.479 15.904 4.71667 16 5 16ZM11.5 17H20.5V14H11.5V17Z" fill="#1C1B1F"/>
</g>
</svg>
