<svg width="24" height="24" viewBox="0 0 24 24" fill="none" xmlns="http://www.w3.org/2000/svg">
<mask id="mask0_22_441" style="mask-type:alpha" maskUnits="userSpaceOnUse" x="0" y="0" width="24" height="24">
<rect width="24" height="24" fill="#D9D9D9"/>
</mask>
<g mask="url(#mask0_22_441)">
<path d="M8 15H10V12H13.5V14.5L17 11L13.5 7.5V10H9C8.71667 10 8.47933 10.0957 8.288 10.287C8.096 10.479 8 10.7167 8 11V15ZM12 22C11.75 22 11.504 21.95 11.262 21.85C11.0207 21.75 10.8 21.6 10.6 21.4L2.6 13.4C2.4 13.2 2.25 12.9793 2.15 12.738C2.05 12.496 2 12.25 2 12C2 11.75 2.05 11.504 2.15 11.262C2.25 11.0207 2.4 10.8 2.6 10.6L10.6 2.6C10.8 2.4 11.0207 2.25 11.262 2.15C11.504 2.05 11.75 2 12 2C12.25 2 12.496 2.05 12.738 2.15C12.9793 2.25 13.2 2.4 13.4 2.6L21.4 10.6C21.6 10.8 21.75 11.0207 21.85 11.262C21.95 11.504 22 11.75 22 12C22 12.25 21.95 12.496 21.85 12.738C21.75 12.9793 21.6 13.2 21.4 13.4L13.4 21.4C13.2 21.6 12.9793 21.75 12.738 21.85C12.496 21.95 12.25 22 12 22ZM12 20L20 12L12 4L4 12L12 20Z" fill="#1C1B1F"/>
</g>
</svg>
