<svg width="24" height="24" viewBox="0 0 24 24" fill="none" xmlns="http://www.w3.org/2000/svg">
<mask id="mask0_22_405" style="mask-type:alpha" maskUnits="userSpaceOnUse" x="0" y="0" width="24" height="24">
<rect width="24" height="24" fill="#D9D9D9"/>
</mask>
<g mask="url(#mask0_22_405)">
<path d="M6 19V20C6 20.2833 5.90433 20.5207 5.713 20.712C5.521 20.904 5.28333 21 5 21H4C3.71667 21 3.47933 20.904 3.288 20.712C3.096 20.5207 3 20.2833 3 20V12L5.1 6C5.2 5.7 5.37933 5.45833 5.638 5.275C5.896 5.09167 6.18333 5 6.5 5H17.5C17.8167 5 18.1043 5.09167 18.363 5.275C18.621 5.45833 18.8 5.7 18.9 6L21 12V20C21 20.2833 20.904 20.5207 20.712 20.712C20.5207 20.904 20.2833 21 20 21H19C18.7167 21 18.4793 20.904 18.288 20.712C18.096 20.5207 18 20.2833 18 20V19H6ZM5.8 10H18.2L17.15 7H6.85L5.8 10ZM7.5 16C7.91667 16 8.27067 15.854 8.562 15.562C8.854 15.2707 9 14.9167 9 14.5C9 14.0833 8.854 13.7293 8.562 13.438C8.27067 13.146 7.91667 13 7.5 13C7.08333 13 6.72933 13.146 6.438 13.438C6.146 13.7293 6 14.0833 6 14.5C6 14.9167 6.146 15.2707 6.438 15.562C6.72933 15.854 7.08333 16 7.5 16ZM16.5 16C16.9167 16 17.2707 15.854 17.562 15.562C17.854 15.2707 18 14.9167 18 14.5C18 14.0833 17.854 13.7293 17.562 13.438C17.2707 13.146 16.9167 13 16.5 13C16.0833 13 15.7293 13.146 15.438 13.438C15.146 13.7293 15 14.0833 15 14.5C15 14.9167 15.146 15.2707 15.438 15.562C15.7293 15.854 16.0833 16 16.5 16ZM5 17H19V12H5V17Z" fill="#1C1B1F"/>
</g>
</svg>
