<svg width="25" height="25" viewBox="0 0 25 25" fill="none" xmlns="http://www.w3.org/2000/svg">
<mask id="mask0_22_429" style="mask-type:alpha" maskUnits="userSpaceOnUse" x="0" y="0" width="25" height="25">
<rect x="0.80426" y="0.884705" width="24" height="24" fill="#D9D9D9"/>
</mask>
<g mask="url(#mask0_22_429)">
<path d="M16.3043 6.3847C15.7543 6.3847 15.2836 6.1887 14.8923 5.7967C14.5003 5.40537 14.3043 4.9347 14.3043 4.3847C14.3043 3.8347 14.5003 3.3637 14.8923 2.9717C15.2836 2.58037 15.7543 2.3847 16.3043 2.3847C16.8543 2.3847 17.3253 2.58037 17.7173 2.9717C18.1086 3.3637 18.3043 3.8347 18.3043 4.3847C18.3043 4.9347 18.1086 5.40537 17.7173 5.7967C17.3253 6.1887 16.8543 6.3847 16.3043 6.3847ZM11.6043 11.3847L13.8043 13.6847V19.8847H11.8043V14.8847L8.60426 12.0847C8.37093 11.8847 8.21259 11.6764 8.12926 11.4597C8.04593 11.243 8.00426 10.9847 8.00426 10.6847C8.00426 10.3847 8.05026 10.1304 8.14226 9.9217C8.23359 9.7137 8.38759 9.50137 8.60426 9.2847L11.4043 6.4847C11.6209 6.26804 11.8503 6.1137 12.0923 6.0217C12.3336 5.93037 12.6043 5.8847 12.9043 5.8847C13.2043 5.8847 13.4753 5.93037 13.7173 6.0217C13.9586 6.1137 14.1876 6.26804 14.4043 6.4847L16.3043 8.3847C16.7543 8.8347 17.2793 9.19704 17.8793 9.4717C18.4793 9.74704 19.1543 9.8847 19.9043 9.8847V11.8847C18.8543 11.8847 17.9043 11.6974 17.0543 11.3227C16.2043 10.9474 15.4543 10.4347 14.8043 9.7847L14.0043 8.9847L11.6043 11.3847ZM5.80426 12.8847C7.22093 12.8847 8.40826 13.364 9.36626 14.3227C10.3249 15.2807 10.8043 16.468 10.8043 17.8847C10.8043 19.3014 10.3249 20.4887 9.36626 21.4467C8.40826 22.4054 7.22093 22.8847 5.80426 22.8847C4.38759 22.8847 3.20026 22.4054 2.24226 21.4467C1.28359 20.4887 0.80426 19.3014 0.80426 17.8847C0.80426 16.468 1.28359 15.2807 2.24226 14.3227C3.20026 13.364 4.38759 12.8847 5.80426 12.8847ZM5.80426 21.3847C6.75426 21.3847 7.57526 21.0387 8.26726 20.3467C8.95859 19.6554 9.30426 18.8347 9.30426 17.8847C9.30426 16.9347 8.95859 16.1137 8.26726 15.4217C7.57526 14.7304 6.75426 14.3847 5.80426 14.3847C4.85426 14.3847 4.03359 14.7304 3.34226 15.4217C2.65026 16.1137 2.30426 16.9347 2.30426 17.8847C2.30426 18.8347 2.65026 19.6554 3.34226 20.3467C4.03359 21.0387 4.85426 21.3847 5.80426 21.3847ZM19.8043 12.8847C21.2209 12.8847 22.4083 13.364 23.3663 14.3227C24.3249 15.2807 24.8043 16.468 24.8043 17.8847C24.8043 19.3014 24.3249 20.4887 23.3663 21.4467C22.4083 22.4054 21.2209 22.8847 19.8043 22.8847C18.3876 22.8847 17.2003 22.4054 16.2423 21.4467C15.2836 20.4887 14.8043 19.3014 14.8043 17.8847C14.8043 16.468 15.2836 15.2807 16.2423 14.3227C17.2003 13.364 18.3876 12.8847 19.8043 12.8847ZM19.8043 21.3847C20.7543 21.3847 21.5749 21.0387 22.2663 20.3467C22.9583 19.6554 23.3043 18.8347 23.3043 17.8847C23.3043 16.9347 22.9583 16.1137 22.2663 15.4217C21.5749 14.7304 20.7543 14.3847 19.8043 14.3847C18.8543 14.3847 18.0336 14.7304 17.3423 15.4217C16.6503 16.1137 16.3043 16.9347 16.3043 17.8847C16.3043 18.8347 16.6503 19.6554 17.3423 20.3467C18.0336 21.0387 18.8543 21.3847 19.8043 21.3847Z" fill="#1C1B1F"/>
</g>
</svg>
