<svg width="24" height="24" viewBox="0 0 24 24" fill="none" xmlns="http://www.w3.org/2000/svg">
<mask id="mask0_22_477" style="mask-type:alpha" maskUnits="userSpaceOnUse" x="0" y="0" width="24" height="24">
<rect width="24" height="24" fill="#D9D9D9"/>
</mask>
<g mask="url(#mask0_22_477)">
<path d="M12 19C10.0667 19 8.41667 18.3167 7.05 16.95C5.68333 15.5833 5 13.9333 5 12C5 10.0667 5.68333 8.41667 7.05 7.05C8.41667 5.68333 10.0667 5 12 5C13.9333 5 15.5833 5.68333 16.95 7.05C18.3167 8.41667 19 10.0667 19 12C19 13.9333 18.3167 15.5833 16.95 16.95C15.5833 18.3167 13.9333 19 12 19ZM12 17C13.3833 17 14.5627 16.5123 15.538 15.537C16.5127 14.5623 17 13.3833 17 12C17 10.6167 16.5127 9.43733 15.538 8.462C14.5627 7.48733 13.3833 7 12 7C10.6167 7 9.43767 7.48733 8.463 8.462C7.48767 9.43733 7 10.6167 7 12C7 13.3833 7.48767 14.5623 8.463 15.537C9.43767 16.5123 10.6167 17 12 17Z" fill="#1C1B1F"/>
</g>
</svg>
